<svg width="24" height="24" viewBox="0 0 24 24" fill="none" xmlns="http://www.w3.org/2000/svg">
<path d="M20.0397 6.82006L14.2797 2.79006C12.7097 1.69006 10.2997 1.75006 8.78975 2.92006L3.77975 6.83006C2.77975 7.61006 1.98975 9.21006 1.98975 10.4701V17.3701C1.98975 19.9201 4.05975 22.0001 6.60975 22.0001H17.3897C19.9397 22.0001 22.0097 19.9301 22.0097 17.3801V10.6001C22.0097 9.25006 21.1397 7.59006 20.0397 6.82006ZM12.7497 18.0001C12.7497 18.4101 12.4097 18.7501 11.9997 18.7501C11.5897 18.7501 11.2497 18.4101 11.2497 18.0001V15.0001C11.2497 14.5901 11.5897 14.2501 11.9997 14.2501C12.4097 14.2501 12.7497 14.5901 12.7497 15.0001V18.0001Z" fill="#FEFEFE"/>
</svg>
